<svg width="24" height="24" viewBox="0 0 24 24" fill="none" xmlns="http://www.w3.org/2000/svg">
<g clip-path="url(#clip0_3_2025)">
<path d="M0 4.00006C0 1.79092 1.79086 6.10352e-05 4 6.10352e-05H20C22.2091 6.10352e-05 24 1.79092 24 4.00006V20.0001C24 22.2092 22.2091 24.0001 20 24.0001H4C1.79086 24.0001 0 22.2092 0 20.0001V4.00006Z" fill="#EFF1F2"/>
<path d="M14.6123 13.2676H11.8711L11.1943 12.9874C10.4424 12.7504 9.86589 12.3904 9.46484 11.9073C9.0638 11.4242 8.86328 10.8158 8.86328 10.0821C8.86328 9.42584 9.00911 8.87213 9.30078 8.42096C9.59245 7.96979 10.0072 7.58112 10.5449 7.34869C11.0872 7.11627 11.7275 7.00006 12.4658 7.00006H15.8086L15.8086 17.0001H14.0859L14.0859 8.41412H12.4658C11.8278 8.41412 11.3538 8.56907 11.0439 8.87897C10.734 9.18886 10.5791 9.61725 10.5791 10.1641C10.5791 10.5378 10.6475 10.8591 10.7842 11.128C10.9255 11.3923 11.1328 11.5974 11.4062 11.7432C11.6842 11.8845 12.0283 11.9551 12.4385 11.9551H14.6123V13.2676ZM12.5205 12.502L10.21 17.0001H8.36426L10.7021 12.502H12.5205Z" fill="#656E73"/>
</g>
<defs>
<clipPath id="clip0_3_2025">
<rect width="24" height="24" fill="white"/>
</clipPath>
</defs>
</svg>
